# This file uses centimeters as units for non-parametric coordinates.

mtllib Bottle_OBJ.mtl
g default
v 0.000000 0.000000 -0.000000
v 0.015910 0.233152 -0.009185
v 0.009185 0.233152 -0.015910
v 0.000000 0.233152 -0.018371
v -0.009185 0.233152 -0.015910
v -0.015910 0.233152 -0.009185
v -0.018371 0.233152 -0.000000
v -0.015910 0.233152 0.009185
v -0.009185 0.233152 0.015909
v 0.000000 0.233152 0.018371
v 0.009185 0.233152 0.015909
v 0.015910 0.233152 0.009185
v 0.018371 0.233152 -0.000000
v 0.015910 0.239655 -0.009185
v 0.009185 0.239655 -0.015910
v 0.000000 0.239655 -0.018371
v -0.009185 0.239655 -0.015910
v -0.015910 0.239655 -0.009185
v -0.018371 0.239655 -0.000000
v -0.015910 0.239655 0.009185
v -0.009185 0.239655 0.015909
v 0.000000 0.239655 0.018371
v 0.009185 0.239655 0.015909
v 0.015910 0.239655 0.009185
v 0.018371 0.239655 -0.000000
v 0.017984 0.236403 -0.010383
v 0.010383 0.236403 -0.017985
v 0.000000 0.236403 -0.020767
v -0.010383 0.236403 -0.017985
v -0.017984 0.236403 -0.010383
v -0.020767 0.236403 -0.000000
v -0.017984 0.236403 0.010383
v -0.010383 0.236403 0.017984
v 0.000000 0.236403 0.020767
v 0.010383 0.236403 0.017984
v 0.017984 0.236403 0.010383
v 0.020767 0.236403 -0.000000
v 0.032704 0.126161 -0.018882
v 0.031646 0.139869 -0.018271
v 0.028506 0.153174 -0.016458
v 0.018882 0.126161 -0.032704
v 0.018271 0.139869 -0.031646
v 0.016458 0.153174 -0.028506
v 0.000000 0.126161 -0.037763
v 0.000000 0.139869 -0.036542
v 0.000000 0.153174 -0.032916
v -0.018882 0.126161 -0.032704
v -0.018271 0.139869 -0.031646
v -0.016458 0.153174 -0.028506
v -0.032704 0.126161 -0.018882
v -0.031646 0.139869 -0.018271
v -0.028506 0.153174 -0.016458
v -0.037763 0.126161 -0.000000
v -0.036542 0.139869 -0.000000
v -0.032916 0.153174 -0.000000
v -0.032704 0.126161 0.018882
v -0.031646 0.139869 0.018271
v -0.028506 0.153174 0.016458
v -0.018882 0.126161 0.032704
v -0.018271 0.139869 0.031646
v -0.016458 0.153174 0.028506
v 0.000000 0.126161 0.037763
v 0.000000 0.139869 0.036542
v 0.000000 0.153174 0.032916
v 0.018882 0.126161 0.032704
v 0.018271 0.139869 0.031646
v 0.016458 0.153174 0.028506
v 0.032704 0.126161 0.018882
v 0.031646 0.139869 0.018271
v 0.028506 0.153174 0.016458
v 0.037763 0.126161 -0.000000
v 0.036542 0.139869 -0.000000
v 0.032916 0.153174 -0.000000
v 0.020108 0.179381 -0.011609
v 0.016967 0.192686 -0.009796
v 0.015910 0.206393 -0.009185
v 0.011609 0.179381 -0.020108
v 0.009796 0.192686 -0.016967
v 0.009185 0.206393 -0.015910
v 0.000000 0.179381 -0.023219
v 0.000000 0.192686 -0.019592
v 0.000000 0.206393 -0.018371
v -0.011609 0.179381 -0.020108
v -0.009796 0.192686 -0.016967
v -0.009185 0.206393 -0.015910
v -0.020108 0.179381 -0.011609
v -0.016967 0.192686 -0.009796
v -0.015910 0.206393 -0.009185
v -0.023218 0.179381 -0.000000
v -0.019592 0.192686 -0.000000
v -0.018371 0.206393 -0.000000
v -0.020108 0.179381 0.011609
v -0.016967 0.192686 0.009796
v -0.015910 0.206393 0.009185
v -0.011609 0.179381 0.020108
v -0.009796 0.192686 0.016967
v -0.009185 0.206393 0.015909
v 0.000000 0.179381 0.023218
v 0.000000 0.192686 0.019592
v 0.000000 0.206393 0.018371
v 0.011609 0.179381 0.020108
v 0.009796 0.192686 0.016967
v 0.009185 0.206393 0.015909
v 0.020108 0.179381 0.011609
v 0.016967 0.192686 0.009796
v 0.015910 0.206393 0.009185
v 0.023218 0.179381 -0.000000
v 0.019592 0.192686 -0.000000
v 0.018371 0.206393 -0.000000
v 0.031018 0.000000 -0.017909
v 0.032704 0.001880 -0.018882
v 0.017908 0.000000 -0.031018
v 0.018882 0.001880 -0.032704
v 0.000000 0.000000 -0.035817
v 0.000000 0.001880 -0.037763
v -0.017908 0.000000 -0.031018
v -0.018882 0.001880 -0.032704
v -0.031018 0.000000 -0.017909
v -0.032704 0.001880 -0.018882
v -0.035817 0.000000 -0.000000
v -0.037763 0.001880 -0.000000
v -0.031018 0.000000 0.017908
v -0.032704 0.001880 0.018882
v -0.017908 0.000000 0.031018
v -0.018882 0.001880 0.032704
v 0.000000 0.000000 0.035817
v 0.000000 0.001880 0.037763
v 0.017908 0.000000 0.031018
v 0.018882 0.001880 0.032704
v 0.031018 0.000000 0.017908
v 0.032704 0.001880 0.018882
v 0.035817 0.000000 -0.000000
v 0.037763 0.001880 -0.000000
v 0.013065 0.239655 -0.007543
v 0.007543 0.239655 -0.013065
v 0.000000 0.239655 -0.015086
v -0.007543 0.239655 -0.013065
v -0.013065 0.239655 -0.007543
v -0.015086 0.239655 -0.000000
v -0.013065 0.239655 0.007543
v -0.007543 0.239655 0.013065
v 0.000000 0.239655 0.015086
v 0.007543 0.239655 0.013065
v 0.013065 0.239655 0.007543
v 0.015086 0.239655 -0.000000
v 0.013065 0.192970 -0.007543
v 0.007543 0.192970 -0.013065
v 0.000000 0.192970 -0.015086
v -0.007543 0.192970 -0.013065
v -0.013065 0.192970 -0.007543
v -0.015086 0.192970 -0.000000
v -0.013065 0.192970 0.007543
v -0.007543 0.192970 0.013065
v 0.000000 0.192970 0.015086
v 0.007543 0.192970 0.013065
v 0.013065 0.192970 0.007543
v 0.015086 0.192970 -0.000000
v 0.027728 0.139869 -0.016009
v 0.016009 0.139869 -0.027728
v 0.000000 0.139869 -0.032018
v -0.016009 0.139869 -0.027728
v -0.027728 0.139869 -0.016009
v -0.032018 0.139869 0.000000
v -0.027728 0.139869 0.016009
v -0.016009 0.139869 0.027728
v 0.000000 0.139869 0.032018
v 0.016009 0.139869 0.027728
v 0.027728 0.139869 0.016009
v 0.032018 0.139869 0.000000
v 0.027728 0.004456 -0.016009
v 0.016009 0.004456 -0.027728
v 0.000000 0.004456 0.000000
v 0.000000 0.004456 -0.032018
v -0.016009 0.004456 -0.027728
v -0.027728 0.004456 -0.016009
v -0.032018 0.004456 0.000000
v -0.027728 0.004456 0.016009
v -0.016009 0.004456 0.027728
v 0.000000 0.004456 0.032018
v 0.016009 0.004456 0.027728
v 0.027728 0.004456 0.016009
v 0.032018 0.004456 0.000000
vt 0.597923 0.027918
vt 0.400120 0.027918
vt 0.103462 0.027918
vt 0.152908 0.027918
vt 0.202355 0.027918
vt 0.251801 0.027918
vt 0.301247 0.027918
vt 0.350693 0.027918
vt 0.400139 0.027918
vt 0.449585 0.027918
vt 0.499031 0.027918
vt 0.371695 0.907391
vt 0.387624 0.920119
vt 0.369711 0.915333
vt 0.185701 0.919707
vt 0.190099 0.927605
vt 0.205461 0.912946
vt 0.208066 0.920678
vt 0.224011 0.907862
vt 0.225959 0.915838
vt 0.242382 0.903848
vt 0.243848 0.911979
vt 0.260808 0.900902
vt 0.261797 0.909126
vt 0.279315 0.899084
vt 0.279812 0.907360
vt 0.297871 0.898429
vt 0.297866 0.906721
vt 0.316423 0.898947
vt 0.315913 0.907222
vt 0.334918 0.900633
vt 0.333911 0.908853
vt 0.353330 0.903461
vt 0.351838 0.911580
vt 0.373583 0.899499
vt 0.184658 0.910899
vt 0.203412 0.905201
vt 0.222169 0.899971
vt 0.240955 0.895798
vt 0.259841 0.892758
vt 0.278833 0.890890
vt 0.297886 0.890219
vt 0.316937 0.890756
vt 0.335922 0.892498
vt 0.354802 0.895425
vt 0.430149 0.735187
vt 0.463233 0.744748
vt 0.405570 0.789744
vt 0.100138 0.760860
vt 0.142665 0.812345
vt 0.131151 0.746105
vt 0.164570 0.799809
vt 0.164025 0.736316
vt 0.189180 0.791145
vt 0.197359 0.729511
vt 0.215277 0.785090
vt 0.230713 0.724901
vt 0.242214 0.780992
vt 0.263990 0.722166
vt 0.269618 0.778547
vt 0.297201 0.721179
vt 0.297240 0.777625
vt 0.330387 0.721901
vt 0.324879 0.778191
vt 0.363594 0.724360
vt 0.352337 0.780282
vt 0.396857 0.728679
vt 0.379360 0.784029
vt 0.384294 0.844902
vt 0.404134 0.850545
vt 0.172292 0.858314
vt 0.191355 0.851807
vt 0.211167 0.845946
vt 0.231884 0.841208
vt 0.253355 0.837755
vt 0.275346 0.835626
vt 0.297609 0.834825
vt 0.319891 0.835353
vt 0.341938 0.837213
vt 0.363492 0.840406
vt 0.446471 0.680423
vt 0.439339 0.707906
vt 0.403394 0.701560
vt 0.408712 0.674527
vt 0.082219 0.730115
vt 0.069403 0.695882
vt 0.118341 0.718011
vt 0.108964 0.688938
vt 0.154681 0.709121
vt 0.147452 0.681661
vt 0.190678 0.702471
vt 0.185305 0.675444
vt 0.226343 0.697779
vt 0.222756 0.670799
vt 0.261778 0.694936
vt 0.259962 0.667909
vt 0.297093 0.693893
vt 0.297048 0.666840
vt 0.332394 0.694637
vt 0.334126 0.667604
vt 0.367788 0.697177
vt 0.371309 0.670188
vt 0.393570 0.817118
vt 0.370655 0.812076
vt 0.160940 0.834770
vt 0.180141 0.825341
vt 0.201501 0.818223
vt 0.224366 0.812918
vt 0.248231 0.809199
vt 0.272705 0.806947
vt 0.297469 0.806106
vt 0.322244 0.806661
vt 0.346747 0.808631
vt 0.921576 0.820429
vt 0.462340 0.421037
vt 0.420913 0.417880
vt 0.930046 0.825319
vt 0.503389 0.424523
vt 0.955471 0.730433
vt 0.047226 0.431758
vt 0.945690 0.730433
vt 0.087654 0.428022
vt 0.855695 0.886309
vt 0.128401 0.423978
vt 0.860585 0.894780
vt 0.169573 0.420164
vt 0.765700 0.910424
vt 0.211144 0.417016
vt 0.765700 0.920205
vt 0.253021 0.414844
vt 0.675705 0.886309
vt 0.295077 0.413835
vt 0.670814 0.894780
vt 0.337170 0.414055
vt 0.609824 0.820429
vt 0.379157 0.415458
vt 0.601353 0.825319
vt 0.385229 0.926146
vt 0.368045 0.921637
vt 0.194675 0.933206
vt 0.210370 0.926880
vt 0.227506 0.922211
vt 0.244968 0.918448
vt 0.262529 0.915659
vt 0.280151 0.913929
vt 0.297804 0.913300
vt 0.315450 0.913784
vt 0.333052 0.915370
vt 0.350589 0.918020
vt 0.548477 0.027918
vt 0.597923 0.324594
vt 0.647369 0.324594
vt 0.647369 0.265707
vt 0.597923 0.265707
vt 0.103462 0.324594
vt 0.103462 0.265707
vt 0.152908 0.324594
vt 0.152908 0.265707
vt 0.202355 0.324594
vt 0.202355 0.265707
vt 0.251801 0.324594
vt 0.251801 0.265707
vt 0.301247 0.324594
vt 0.301247 0.265707
vt 0.350693 0.324594
vt 0.350693 0.265707
vt 0.400139 0.324594
vt 0.400139 0.265707
vt 0.449585 0.324594
vt 0.449585 0.265707
vt 0.499031 0.324594
vt 0.499031 0.265707
vt 0.548477 0.324594
vt 0.548477 0.265707
vt 0.647370 0.198725
vt 0.597923 0.198725
vt 0.390225 0.912478
vt 0.409873 0.919411
vt 0.411190 0.910338
vt 0.495110 0.759669
vt 0.430306 0.798093
vt 0.422987 0.856789
vt 0.392336 0.904630
vt 0.475710 0.716512
vt 0.512325 0.728200
vt 0.523946 0.693710
vt 0.414999 0.823991
vt 0.434386 0.833223
vt 0.452306 0.810429
vt 0.585710 0.730433
vt 0.575929 0.730433
vt 0.544092 0.427841
vt 0.484773 0.687324
vt 0.405298 0.927107
vt 0.400747 0.932469
vt 0.103462 0.198725
vt 0.152908 0.198725
vt 0.202355 0.198725
vt 0.251801 0.198725
vt 0.301247 0.198725
vt 0.350693 0.198725
vt 0.400139 0.198725
vt 0.449585 0.198725
vt 0.499031 0.198725
vt 0.548477 0.198725
vt 0.647370 0.027918
vt 0.696816 0.027918
vt 0.638125 0.027918
vt 0.696816 0.324594
vt 0.696816 0.265707
vt 0.696816 0.198725
vt 0.609824 0.640438
vt 0.601353 0.635548
vt 0.675705 0.574557
vt 0.670814 0.566087
vt 0.765700 0.550443
vt 0.765700 0.540662
vt 0.855695 0.574557
vt 0.860585 0.566087
vt 0.921576 0.640438
vt 0.930046 0.635548
vt 0.765700 0.730433
vn -0.861853 0.098044 0.497591
vn -0.497593 0.098045 0.861852
vn 0.000000 1.000000 -0.000000
vn 0.000000 0.098044 0.995182
vn 0.497593 0.098045 0.861852
vn 0.861853 0.098044 0.497591
vn 0.995182 0.098044 -0.000000
vn 0.861852 0.098044 -0.497592
vn 0.497592 0.098044 -0.861853
vn 0.000000 0.098044 -0.995182
vn -0.497592 0.098044 -0.861853
vn -0.861852 0.098044 -0.497592
vn -0.995182 0.098044 -0.000000
vn 0.866026 0.000000 -0.499999
vn 0.499999 0.000000 -0.866026
vn 0.291689 0.812200 -0.505222
vn 0.505223 0.812199 -0.291689
vn 0.000000 -0.000000 -1.000000
vn -0.000000 0.812199 -0.583381
vn -0.499999 -0.000000 -0.866026
vn -0.291689 0.812200 -0.505222
vn -0.866026 -0.000000 -0.499999
vn -0.505223 0.812199 -0.291689
vn -1.000000 0.000000 -0.000000
vn -0.583382 0.812198 -0.000000
vn -0.866025 0.000000 0.500000
vn -0.505223 0.812198 0.291691
vn -0.499999 0.000000 0.866026
vn -0.291690 0.812198 0.505224
vn -0.000000 -0.000000 1.000000
vn 0.000000 0.812196 0.583384
vn 0.499999 -0.000000 0.866026
vn 0.291690 0.812198 0.505224
vn 0.866025 -0.000000 0.500000
vn 0.505223 0.812198 0.291692
vn 1.000000 0.000000 0.000000
vn 0.583382 0.812198 0.000000
vn 0.862408 -0.091320 -0.497909
vn 0.497910 -0.091320 -0.862407
vn 0.000000 -0.091320 -0.995822
vn -0.497910 -0.091320 -0.862407
vn -0.862408 -0.091320 -0.497909
vn -0.995822 -0.091320 0.000000
vn -0.862406 -0.091320 0.497912
vn -0.497910 -0.091319 0.862407
vn -0.000000 -0.091319 0.995822
vn 0.497910 -0.091319 0.862407
vn 0.862406 -0.091320 0.497912
vn 0.995822 -0.091320 -0.000000
vn 0.822392 0.313416 -0.474808
vn 0.474808 0.313417 -0.822391
vn 0.472700 0.325917 -0.818739
vn 0.818740 0.325916 -0.472699
vn 0.000000 0.313417 -0.949616
vn 0.000000 0.325917 -0.945399
vn -0.474808 0.313417 -0.822391
vn -0.472700 0.325917 -0.818739
vn -0.822392 0.313416 -0.474808
vn -0.818739 0.325916 -0.472699
vn -0.949616 0.313416 -0.000000
vn -0.945399 0.325916 -0.000000
vn -0.822391 0.313416 0.474810
vn -0.818738 0.325916 0.472701
vn -0.474808 0.313416 0.822391
vn -0.472700 0.325916 0.818739
vn -0.000000 0.313417 0.949615
vn -0.000000 0.325916 0.945399
vn 0.474808 0.313416 0.822391
vn 0.472700 0.325916 0.818739
vn 0.822391 0.313416 0.474809
vn 0.818739 0.325916 0.472701
vn 0.949616 0.313416 0.000000
vn 0.945399 0.325916 0.000000
vn 0.865607 0.031120 -0.499756
vn 0.499757 0.031119 -0.865606
vn -0.000000 0.031119 -0.999516
vn -0.499757 0.031119 -0.865606
vn -0.865607 0.031120 -0.499756
vn -0.999516 0.031120 0.000000
vn -0.865605 0.031119 0.499759
vn -0.499757 0.031119 0.865606
vn 0.000000 0.031119 0.999516
vn 0.499757 0.031119 0.865606
vn 0.865606 0.031119 0.499759
vn 0.999516 0.031120 0.000000
vn 0.865993 0.008607 -0.499981
vn 0.853253 0.171116 -0.492625
vn 0.985251 0.171116 0.000000
vn 0.999963 0.008607 0.000000
vn 0.492626 0.171115 -0.853252
vn 0.499982 0.008607 -0.865993
vn 0.000000 0.171115 -0.985251
vn 0.000000 0.008607 -0.999963
vn -0.492626 0.171115 -0.853252
vn -0.499982 0.008607 -0.865993
vn -0.853253 0.171116 -0.492625
vn -0.865993 0.008607 -0.499981
vn -0.985251 0.171116 0.000000
vn -0.999963 0.008607 0.000000
vn -0.853252 0.171116 0.492626
vn -0.865993 0.008607 0.499982
vn -0.492626 0.171116 0.853252
vn -0.499982 0.008607 0.865993
vn -0.000000 0.171116 0.985251
vn 0.000000 0.008607 0.999963
vn 0.492626 0.171116 0.853252
vn 0.499982 0.008607 0.865993
vn 0.853252 0.171116 0.492626
vn 0.865993 0.008607 0.499982
vn 0.851181 0.184364 -0.491428
vn 0.982858 0.184365 0.000000
vn 0.491428 0.184363 -0.851181
vn 0.000000 0.184364 -0.982858
vn -0.491428 0.184363 -0.851180
vn -0.851180 0.184364 -0.491428
vn -0.982858 0.184365 0.000000
vn -0.851179 0.184364 0.491430
vn -0.491429 0.184363 0.851181
vn -0.000000 0.184364 0.982858
vn 0.491429 0.184363 0.851180
vn 0.851179 0.184364 0.491430
vn 0.108214 -0.992162 -0.062478
vn 0.865949 -0.013265 -0.499956
vn 0.999912 -0.013265 0.000000
vn 0.124955 -0.992162 0.000000
vn 0.062478 -0.992162 -0.108215
vn 0.499956 -0.013265 -0.865949
vn 0.000000 -0.992162 -0.124956
vn 0.000000 -0.013265 -0.999912
vn -0.062478 -0.992162 -0.108215
vn -0.499956 -0.013265 -0.865949
vn -0.108214 -0.992162 -0.062478
vn -0.865949 -0.013265 -0.499956
vn -0.124955 -0.992162 0.000000
vn -0.999912 -0.013265 0.000000
vn -0.108214 -0.992162 0.062478
vn -0.865949 -0.013265 0.499957
vn -0.062478 -0.992162 0.108215
vn -0.499956 -0.013265 0.865949
vn 0.000000 -0.992162 0.124956
vn 0.000000 -0.013265 0.999912
vn 0.062478 -0.992162 0.108215
vn 0.499956 -0.013265 0.865949
vn 0.108214 -0.992162 0.062478
vn 0.865949 -0.013265 0.499957
vn 0.000000 -1.000000 0.000000
vn -0.497943 0.090637 0.862460
vn -0.862461 0.090637 0.497943
vn 0.000000 0.090638 0.995884
vn 0.497943 0.090637 0.862460
vn 0.862461 0.090637 0.497943
vn 0.995884 0.090637 0.000000
vn 0.862460 0.090636 -0.497943
vn 0.497943 0.090637 -0.862461
vn 0.000000 0.090637 -0.995884
vn -0.497943 0.090637 -0.862460
vn -0.862460 0.090637 -0.497943
vn -0.995884 0.090637 -0.000000
vn -0.489569 -0.203214 0.847954
vn -0.847955 -0.203214 0.489567
vn 0.000000 -0.203215 0.979134
vn 0.489569 -0.203214 0.847954
vn 0.847955 -0.203214 0.489567
vn 0.979134 -0.203214 -0.000000
vn 0.847955 -0.203214 -0.489568
vn 0.489568 -0.203214 -0.847955
vn -0.000000 -0.203215 -0.979134
vn -0.489568 -0.203214 -0.847955
vn -0.847955 -0.203214 -0.489568
vn -0.979134 -0.203214 -0.000000
vn -0.498831 -0.068415 0.863995
vn -0.863997 -0.068415 0.498828
vn 0.000000 -0.068416 0.997657
vn 0.498831 -0.068415 0.863995
vn 0.863997 -0.068415 0.498828
vn 0.997657 -0.068415 -0.000000
vn 0.863996 -0.068415 -0.498830
vn 0.498829 -0.068415 -0.863996
vn -0.000000 -0.068415 -0.997657
vn -0.498829 -0.068415 -0.863996
vn -0.863996 -0.068415 -0.498830
vn -0.997657 -0.068415 -0.000000
s 1
g pCylinder9 Bottle_OBJ
usemtl initialShadingGroup
f 170/1/1 171/206/2 172/2/3
f 171/206/2 173/207/4 172/208/3
f 173/3/4 174/4/5 172/2/3
f 174/4/5 175/5/6 172/2/3
f 175/5/6 176/6/7 172/2/3
f 176/6/7 177/7/8 172/2/3
f 177/7/8 178/8/9 172/2/3
f 178/8/9 179/9/10 172/2/3
f 179/9/10 180/10/11 172/2/3
f 180/10/11 181/11/12 172/2/3
f 181/11/12 182/150/13 172/2/3
f 182/150/13 170/1/1 172/2/3
f 26/12/14 27/177/15 15/13/16 14/14/17
f 27/177/15 28/178/18 16/194/19 15/13/16
f 28/15/18 29/17/20 17/18/21 16/16/19
f 29/17/20 30/19/22 18/20/23 17/18/21
f 30/19/22 31/21/24 19/22/25 18/20/23
f 31/21/24 32/23/26 20/24/27 19/22/25
f 32/23/26 33/25/28 21/26/29 20/24/27
f 33/25/28 34/27/30 22/28/31 21/26/29
f 34/27/30 35/29/32 23/30/33 22/28/31
f 35/29/32 36/31/34 24/32/35 23/30/33
f 36/31/34 37/33/36 25/34/37 24/32/35
f 37/33/36 26/12/14 14/14/17 25/34/37
f 2/35/38 3/183/39 27/177/15 26/12/14
f 3/183/39 4/179/40 28/178/18 27/177/15
f 4/36/40 5/37/41 29/17/20 28/15/18
f 5/37/41 6/38/42 30/19/22 29/17/20
f 6/38/42 7/39/43 31/21/24 30/19/22
f 7/39/43 8/40/44 32/23/26 31/21/24
f 8/40/44 9/41/45 33/25/28 32/23/26
f 9/41/45 10/42/46 34/27/30 33/25/28
f 10/42/46 11/43/47 35/29/32 34/27/30
f 11/43/47 12/44/48 36/31/34 35/29/32
f 12/44/48 13/45/49 37/33/36 36/31/34
f 13/45/49 2/35/38 26/12/14 37/33/36
f 40/46/50 43/47/51 77/181/52 74/48/53
f 43/47/51 46/180/54 80/189/55 77/181/52
f 46/49/54 49/51/56 83/52/57 80/50/55
f 49/51/56 52/53/58 86/54/59 83/52/57
f 52/53/58 55/55/60 89/56/61 86/54/59
f 55/55/60 58/57/62 92/58/63 89/56/61
f 58/57/62 61/59/64 95/60/65 92/58/63
f 61/59/64 64/61/66 98/62/67 95/60/65
f 64/61/66 67/63/68 101/64/69 98/62/67
f 67/63/68 70/65/70 104/66/71 101/64/69
f 70/65/70 73/67/72 107/68/73 104/66/71
f 73/67/72 40/46/50 74/48/53 107/68/73
f 76/69/74 79/70/75 3/183/39 2/35/38
f 79/70/75 82/182/76 4/179/40 3/183/39
f 82/71/76 85/72/77 5/37/41 4/36/40
f 85/72/77 88/73/78 6/38/42 5/37/41
f 88/73/78 91/74/79 7/39/43 6/38/42
f 91/74/79 94/75/80 8/40/44 7/39/43
f 94/75/80 97/76/81 9/41/45 8/40/44
f 97/76/81 100/77/82 10/42/46 9/41/45
f 100/77/82 103/78/83 11/43/47 10/42/46
f 103/78/83 106/79/84 12/44/48 11/43/47
f 106/79/84 109/80/85 13/45/49 12/44/48
f 109/80/85 76/69/74 2/35/38 13/45/49
f 38/81/86 39/82/87 72/83/88 71/84/89
f 39/82/87 40/46/50 73/67/72 72/83/88
f 40/46/50 39/82/87 42/184/90 43/47/51
f 39/82/87 38/81/86 41/193/91 42/184/90
f 43/47/51 42/184/90 45/185/92 46/180/54
f 42/184/90 41/193/91 44/186/93 45/185/92
f 46/49/54 45/85/92 48/87/94 49/51/56
f 45/85/92 44/86/93 47/88/95 48/87/94
f 49/51/56 48/87/94 51/89/96 52/53/58
f 48/87/94 47/88/95 50/90/97 51/89/96
f 52/53/58 51/89/96 54/91/98 55/55/60
f 51/89/96 50/90/97 53/92/99 54/91/98
f 55/55/60 54/91/98 57/93/100 58/57/62
f 54/91/98 53/92/99 56/94/101 57/93/100
f 58/57/62 57/93/100 60/95/102 61/59/64
f 57/93/100 56/94/101 59/96/103 60/95/102
f 61/59/64 60/95/102 63/97/104 64/61/66
f 60/95/102 59/96/103 62/98/105 63/97/104
f 64/61/66 63/97/104 66/99/106 67/63/68
f 63/97/104 62/98/105 65/100/107 66/99/106
f 67/63/68 66/99/106 69/101/108 70/65/70
f 66/99/106 65/100/107 68/102/109 69/101/108
f 70/65/70 69/101/108 72/83/88 73/67/72
f 69/101/108 68/102/109 71/84/89 72/83/88
f 74/48/53 75/103/110 108/104/111 107/68/73
f 75/103/110 76/69/74 109/80/85 108/104/111
f 76/69/74 75/103/110 78/187/112 79/70/75
f 75/103/110 74/48/53 77/181/52 78/187/112
f 79/70/75 78/187/112 81/188/113 82/182/76
f 78/187/112 77/181/52 80/189/55 81/188/113
f 82/71/76 81/105/113 84/106/114 85/72/77
f 81/105/113 80/50/55 83/52/57 84/106/114
f 85/72/77 84/106/114 87/107/115 88/73/78
f 84/106/114 83/52/57 86/54/59 87/107/115
f 88/73/78 87/107/115 90/108/116 91/74/79
f 87/107/115 86/54/59 89/56/61 90/108/116
f 91/74/79 90/108/116 93/109/117 94/75/80
f 90/108/116 89/56/61 92/58/63 93/109/117
f 94/75/80 93/109/117 96/110/118 97/76/81
f 93/109/117 92/58/63 95/60/65 96/110/118
f 97/76/81 96/110/118 99/111/119 100/77/82
f 96/110/118 95/60/65 98/62/67 99/111/119
f 100/77/82 99/111/119 102/112/120 103/78/83
f 99/111/119 98/62/67 101/64/69 102/112/120
f 103/78/83 102/112/120 105/113/121 106/79/84
f 102/112/120 101/64/69 104/66/71 105/113/121
f 106/79/84 105/113/121 108/104/111 109/80/85
f 105/113/121 104/66/71 107/68/73 108/104/111
f 110/114/122 111/117/123 133/119/124 132/121/125
f 111/117/123 110/114/122 112/123/126 113/125/127
f 113/125/127 112/123/126 114/127/128 115/129/129
f 115/129/129 114/127/128 116/131/130 117/133/131
f 117/133/131 116/131/130 118/135/132 119/137/133
f 119/137/133 118/135/132 120/190/134 121/191/135
f 121/191/135 120/190/134 122/212/136 123/213/137
f 123/213/137 122/212/136 124/214/138 125/215/139
f 125/215/139 124/214/138 126/216/140 127/217/141
f 127/217/141 126/216/140 128/218/142 129/219/143
f 129/219/143 128/218/142 130/220/144 131/221/145
f 131/221/145 130/220/144 132/121/125 133/119/124
f 112/123/126 110/114/122 1/222/146
f 114/127/128 112/123/126 1/222/146
f 116/131/130 114/127/128 1/222/146
f 118/135/132 116/131/130 1/222/146
f 120/190/134 118/135/132 1/222/146
f 122/212/136 120/190/134 1/222/146
f 124/214/138 122/212/136 1/222/146
f 126/216/140 124/214/138 1/222/146
f 128/218/142 126/216/140 1/222/146
f 130/220/144 128/218/142 1/222/146
f 132/121/125 130/220/144 1/222/146
f 110/114/122 132/121/125 1/222/146
f 111/115/123 113/118/127 41/193/91 38/81/86
f 113/118/127 115/192/129 44/186/93 41/193/91
f 115/120/129 117/122/131 47/88/95 44/86/93
f 117/122/131 119/124/133 50/90/97 47/88/95
f 119/124/133 121/126/135 53/92/99 50/90/97
f 121/126/135 123/128/137 56/94/101 53/92/99
f 123/128/137 125/130/139 59/96/103 56/94/101
f 125/130/139 127/132/141 62/98/105 59/96/103
f 127/132/141 129/134/143 65/100/107 62/98/105
f 129/134/143 131/136/145 68/102/109 65/100/107
f 131/136/145 133/116/124 71/84/89 68/102/109
f 133/116/124 111/115/123 38/81/86 71/84/89
f 14/14/17 15/13/16 135/138/147 134/139/148
f 15/13/16 16/194/19 136/195/149 135/138/147
f 16/16/19 17/18/21 137/141/150 136/140/149
f 17/18/21 18/20/23 138/142/151 137/141/150
f 18/20/23 19/22/25 139/143/152 138/142/151
f 19/22/25 20/24/27 140/144/153 139/143/152
f 20/24/27 21/26/29 141/145/154 140/144/153
f 21/26/29 22/28/31 142/146/155 141/145/154
f 22/28/31 23/30/33 143/147/156 142/146/155
f 23/30/33 24/32/35 144/148/157 143/147/156
f 24/32/35 25/34/37 145/149/158 144/148/157
f 25/34/37 14/14/17 134/139/148 145/149/158
f 134/151/148 135/152/147 147/153/159 146/154/160
f 135/152/147 136/209/149 148/210/161 147/153/159
f 136/155/149 137/157/150 149/158/162 148/156/161
f 137/157/150 138/159/151 150/160/163 149/158/162
f 138/159/151 139/161/152 151/162/164 150/160/163
f 139/161/152 140/163/153 152/164/165 151/162/164
f 140/163/153 141/165/154 153/166/166 152/164/165
f 141/165/154 142/167/155 154/168/167 153/166/166
f 142/167/155 143/169/156 155/170/168 154/168/167
f 143/169/156 144/171/157 156/172/169 155/170/168
f 144/171/157 145/173/158 157/174/170 156/172/169
f 145/173/158 134/151/148 146/154/160 157/174/170
f 146/154/160 147/153/159 159/175/171 158/176/172
f 147/153/159 148/210/161 160/211/173 159/175/171
f 148/156/161 149/158/162 161/197/174 160/196/173
f 149/158/162 150/160/163 162/198/175 161/197/174
f 150/160/163 151/162/164 163/199/176 162/198/175
f 151/162/164 152/164/165 164/200/177 163/199/176
f 152/164/165 153/166/166 165/201/178 164/200/177
f 153/166/166 154/168/167 166/202/179 165/201/178
f 154/168/167 155/170/168 167/203/180 166/202/179
f 155/170/168 156/172/169 168/204/181 167/203/180
f 156/172/169 157/174/170 169/205/182 168/204/181
f 157/174/170 146/154/160 158/176/172 169/205/182
f 158/176/172 159/175/171 171/206/2 170/1/1
f 159/175/171 160/211/173 173/207/4 171/206/2
f 160/196/173 161/197/174 174/4/5 173/3/4
f 161/197/174 162/198/175 175/5/6 174/4/5
f 162/198/175 163/199/176 176/6/7 175/5/6
f 163/199/176 164/200/177 177/7/8 176/6/7
f 164/200/177 165/201/178 178/8/9 177/7/8
f 165/201/178 166/202/179 179/9/10 178/8/9
f 166/202/179 167/203/180 180/10/11 179/9/10
f 167/203/180 168/204/181 181/11/12 180/10/11
f 168/204/181 169/205/182 182/150/13 181/11/12
f 169/205/182 158/176/172 170/1/1 182/150/13
