# This file uses centimeters as units for non-parametric coordinates.

mtllib Ground_OBJ.mtl
g default
v -4.000000 -1.000000 4.000000
v 4.000000 -1.000000 4.000000
v -4.000000 -1.000000 -4.000000
v 4.000000 -1.000000 -4.000000
v -4.000000 0.000100 4.000000
v -3.000100 1.000000 3.000100
v 3.000100 1.000000 3.000100
v 4.000000 0.000100 4.000000
v -3.000100 1.000000 -3.000100
v -4.000000 0.000100 -4.000000
v 3.000100 1.000000 -3.000100
v 4.000000 0.000100 -4.000000
vt 0.682423 0.876199
vt 0.030486 0.795161
vt 0.129547 0.694335
vt 0.765049 0.746239
vt 0.976530 0.065140
vt 0.124719 0.218034
vt 0.594151 0.216368
vt 0.591182 0.693670
vt 0.687310 0.797090
vt 0.034757 0.874053
vt 0.767056 0.060117
vt 0.852808 0.060491
vt 0.696365 0.116433
vt 0.886271 0.750264
vt 0.026141 0.036267
vt 0.971994 0.750725
vt 0.025303 0.115318
vt 0.890767 0.064231
vt 0.696154 0.037433
vt 0.850756 0.746010
vn -0.707107 0.707107 0.000000
vn -0.707107 0.707107 0.000000
vn -0.707107 0.707107 0.000000
vn -0.707107 0.707107 0.000000
vn 0.000000 0.707107 0.707107
vn 0.000000 0.707107 0.707107
vn 0.000000 0.707107 0.707107
vn 0.000000 0.707107 0.707107
vn 0.707107 0.707107 0.000000
vn 0.707107 0.707107 0.000000
vn 0.707107 0.707107 0.000000
vn 0.707107 0.707107 0.000000
vn 0.000000 0.707107 -0.707107
vn 0.000000 0.707107 -0.707107
vn 0.000000 0.707107 -0.707107
vn 0.000000 0.707107 -0.707107
vn 0.000000 0.000000 1.000000
vn 0.000000 0.000000 1.000000
vn 0.000000 0.000000 1.000000
vn 0.000000 0.000000 1.000000
vn 0.000000 1.000000 0.000000
vn 0.000000 1.000000 0.000000
vn 0.000000 1.000000 0.000000
vn 0.000000 1.000000 0.000000
vn 0.000000 0.000000 -1.000000
vn 0.000000 0.000000 -1.000000
vn 0.000000 0.000000 -1.000000
vn 0.000000 0.000000 -1.000000
vn 1.000000 0.000000 0.000000
vn 1.000000 0.000000 0.000000
vn 1.000000 0.000000 0.000000
vn 1.000000 0.000000 0.000000
vn -1.000000 0.000000 0.000000
vn -1.000000 0.000000 0.000000
vn -1.000000 0.000000 0.000000
vn -1.000000 0.000000 0.000000
s off
g Ground_OBJ
usemtl initialShadingGroup
f 5/17/1 6/6/2 9/3/3 10/2/4
f 6/6/5 5/17/6 8/13/7 7/7/8
f 7/7/9 8/13/10 12/9/11 11/8/12
f 10/2/13 9/3/14 11/8/15 12/9/16
f 1/15/17 2/19/18 8/13/19 5/17/20
f 6/6/21 7/7/22 11/8/23 9/3/24
f 10/2/25 12/9/26 4/1/27 3/10/28
f 2/4/29 4/11/30 12/12/31 8/20/32
f 3/14/33 1/18/34 5/5/35 10/16/36
