# This file uses centimeters as units for non-parametric coordinates.

mtllib Bottle_OBJ.mtl
g default
v 0.000000 0.000000 -0.000000
v 0.015910 0.233152 -0.009185
v 0.009185 0.233152 -0.015910
v 0.000000 0.233152 -0.018371
v -0.009185 0.233152 -0.015910
v -0.015910 0.233152 -0.009185
v -0.018371 0.233152 -0.000000
v -0.015910 0.233152 0.009185
v -0.009185 0.233152 0.015909
v 0.000000 0.233152 0.018371
v 0.009185 0.233152 0.015909
v 0.015910 0.233152 0.009185
v 0.018371 0.233152 -0.000000
v 0.015910 0.239655 -0.009185
v 0.009185 0.239655 -0.015910
v 0.000000 0.239655 -0.018371
v -0.009185 0.239655 -0.015910
v -0.015910 0.239655 -0.009185
v -0.018371 0.239655 -0.000000
v -0.015910 0.239655 0.009185
v -0.009185 0.239655 0.015909
v 0.000000 0.239655 0.018371
v 0.009185 0.239655 0.015909
v 0.015910 0.239655 0.009185
v 0.018371 0.239655 -0.000000
v 0.017984 0.236403 -0.010383
v 0.010383 0.236403 -0.017985
v 0.000000 0.236403 -0.020767
v -0.010383 0.236403 -0.017985
v -0.017984 0.236403 -0.010383
v -0.020767 0.236403 -0.000000
v -0.017984 0.236403 0.010383
v -0.010383 0.236403 0.017984
v 0.000000 0.236403 0.020767
v 0.010383 0.236403 0.017984
v 0.017984 0.236403 0.010383
v 0.020767 0.236403 -0.000000
v 0.032704 0.126161 -0.018882
v 0.031646 0.139869 -0.018271
v 0.028506 0.153174 -0.016458
v 0.018882 0.126161 -0.032704
v 0.018271 0.139869 -0.031646
v 0.016458 0.153174 -0.028506
v 0.000000 0.126161 -0.037763
v 0.000000 0.139869 -0.036542
v 0.000000 0.153174 -0.032916
v -0.018882 0.126161 -0.032704
v -0.018271 0.139869 -0.031646
v -0.016458 0.153174 -0.028506
v -0.032704 0.126161 -0.018882
v -0.031646 0.139869 -0.018271
v -0.028506 0.153174 -0.016458
v -0.037763 0.126161 -0.000000
v -0.036542 0.139869 -0.000000
v -0.032916 0.153174 -0.000000
v -0.032704 0.126161 0.018882
v -0.031646 0.139869 0.018271
v -0.028506 0.153174 0.016458
v -0.018882 0.126161 0.032704
v -0.018271 0.139869 0.031646
v -0.016458 0.153174 0.028506
v 0.000000 0.126161 0.037763
v 0.000000 0.139869 0.036542
v 0.000000 0.153174 0.032916
v 0.018882 0.126161 0.032704
v 0.018271 0.139869 0.031646
v 0.016458 0.153174 0.028506
v 0.032704 0.126161 0.018882
v 0.031646 0.139869 0.018271
v 0.028506 0.153174 0.016458
v 0.037763 0.126161 -0.000000
v 0.036542 0.139869 -0.000000
v 0.032916 0.153174 -0.000000
v 0.020108 0.179381 -0.011609
v 0.016967 0.192686 -0.009796
v 0.015910 0.206393 -0.009185
v 0.011609 0.179381 -0.020108
v 0.009796 0.192686 -0.016967
v 0.009185 0.206393 -0.015910
v 0.000000 0.179381 -0.023219
v 0.000000 0.192686 -0.019592
v 0.000000 0.206393 -0.018371
v -0.011609 0.179381 -0.020108
v -0.009796 0.192686 -0.016967
v -0.009185 0.206393 -0.015910
v -0.020108 0.179381 -0.011609
v -0.016967 0.192686 -0.009796
v -0.015910 0.206393 -0.009185
v -0.023218 0.179381 -0.000000
v -0.019592 0.192686 -0.000000
v -0.018371 0.206393 -0.000000
v -0.020108 0.179381 0.011609
v -0.016967 0.192686 0.009796
v -0.015910 0.206393 0.009185
v -0.011609 0.179381 0.020108
v -0.009796 0.192686 0.016967
v -0.009185 0.206393 0.015909
v 0.000000 0.179381 0.023218
v 0.000000 0.192686 0.019592
v 0.000000 0.206393 0.018371
v 0.011609 0.179381 0.020108
v 0.009796 0.192686 0.016967
v 0.009185 0.206393 0.015909
v 0.020108 0.179381 0.011609
v 0.016967 0.192686 0.009796
v 0.015910 0.206393 0.009185
v 0.023218 0.179381 -0.000000
v 0.019592 0.192686 -0.000000
v 0.018371 0.206393 -0.000000
v 0.031018 0.000000 -0.017909
v 0.032704 0.001880 -0.018882
v 0.017908 0.000000 -0.031018
v 0.018882 0.001880 -0.032704
v 0.000000 0.000000 -0.035817
v 0.000000 0.001880 -0.037763
v -0.017908 0.000000 -0.031018
v -0.018882 0.001880 -0.032704
v -0.031018 0.000000 -0.017909
v -0.032704 0.001880 -0.018882
v -0.035817 0.000000 -0.000000
v -0.037763 0.001880 -0.000000
v -0.031018 0.000000 0.017908
v -0.032704 0.001880 0.018882
v -0.017908 0.000000 0.031018
v -0.018882 0.001880 0.032704
v 0.000000 0.000000 0.035817
v 0.000000 0.001880 0.037763
v 0.017908 0.000000 0.031018
v 0.018882 0.001880 0.032704
v 0.031018 0.000000 0.017908
v 0.032704 0.001880 0.018882
v 0.035817 0.000000 -0.000000
v 0.037763 0.001880 -0.000000
v 0.013065 0.239655 -0.007543
v 0.007543 0.239655 -0.013065
v 0.000000 0.239655 -0.015086
v -0.007543 0.239655 -0.013065
v -0.013065 0.239655 -0.007543
v -0.015086 0.239655 -0.000000
v -0.013065 0.239655 0.007543
v -0.007543 0.239655 0.013065
v 0.000000 0.239655 0.015086
v 0.007543 0.239655 0.013065
v 0.013065 0.239655 0.007543
v 0.015086 0.239655 -0.000000
v 0.013065 0.192970 -0.007543
v 0.007543 0.192970 -0.013065
v 0.000000 0.192970 -0.015086
v -0.007543 0.192970 -0.013065
v -0.013065 0.192970 -0.007543
v -0.015086 0.192970 -0.000000
v -0.013065 0.192970 0.007543
v -0.007543 0.192970 0.013065
v 0.000000 0.192970 0.015086
v 0.007543 0.192970 0.013065
v 0.013065 0.192970 0.007543
v 0.015086 0.192970 -0.000000
v 0.027728 0.139869 -0.016009
v 0.016009 0.139869 -0.027728
v 0.000000 0.139869 -0.032018
v -0.016009 0.139869 -0.027728
v -0.027728 0.139869 -0.016009
v -0.032018 0.139869 0.000000
v -0.027728 0.139869 0.016009
v -0.016009 0.139869 0.027728
v 0.000000 0.139869 0.032018
v 0.016009 0.139869 0.027728
v 0.027728 0.139869 0.016009
v 0.032018 0.139869 0.000000
v 0.027728 0.004456 -0.016009
v 0.016009 0.004456 -0.027728
v 0.000000 0.004456 0.000000
v 0.000000 0.004456 -0.032018
v -0.016009 0.004456 -0.027728
v -0.027728 0.004456 -0.016009
v -0.032018 0.004456 0.000000
v -0.027728 0.004456 0.016009
v -0.016009 0.004456 0.027728
v 0.000000 0.004456 0.032018
v 0.016009 0.004456 0.027728
v 0.027728 0.004456 0.016009
v 0.032018 0.004456 0.000000
vt 0.500000 0.837500
vt 0.635316 0.921875
vt 0.578125 0.979066
vt 0.500000 1.000000
vt 0.421875 0.979066
vt 0.364684 0.921875
vt 0.343750 0.843750
vt 0.364684 0.765625
vt 0.421875 0.708434
vt 0.500000 0.687500
vt 0.578125 0.708434
vt 0.635316 0.765625
vt 0.656250 0.843750
vt 0.635316 0.921875
vt 0.578125 0.979066
vt 0.500000 1.000000
vt 0.421875 0.979066
vt 0.364684 0.921875
vt 0.343750 0.843750
vt 0.364684 0.765625
vt 0.421875 0.708434
vt 0.500000 0.687500
vt 0.578125 0.708434
vt 0.635316 0.765625
vt 0.656250 0.843750
vt 0.578125 0.979066
vt 0.635316 0.921875
vt 0.500000 1.000000
vt 0.578125 0.979066
vt 0.421875 0.979066
vt 0.500000 1.000000
vt 0.364684 0.921875
vt 0.421875 0.979066
vt 0.343750 0.843750
vt 0.364684 0.921875
vt 0.364684 0.765625
vt 0.343750 0.843750
vt 0.421875 0.708434
vt 0.364684 0.765625
vt 0.500000 0.687500
vt 0.421875 0.708434
vt 0.578125 0.708434
vt 0.500000 0.687500
vt 0.635316 0.765625
vt 0.578125 0.708434
vt 0.656250 0.843750
vt 0.635316 0.765625
vt 0.635316 0.921875
vt 0.656250 0.843750
vt 0.578125 0.979066
vt 0.635316 0.921875
vt 0.500000 1.000000
vt 0.578125 0.979066
vt 0.421875 0.979066
vt 0.500000 1.000000
vt 0.364684 0.921875
vt 0.421875 0.979066
vt 0.343750 0.843750
vt 0.364684 0.921875
vt 0.364684 0.765625
vt 0.343750 0.843750
vt 0.421875 0.708434
vt 0.364684 0.765625
vt 0.500000 0.687500
vt 0.421875 0.708434
vt 0.578125 0.708434
vt 0.500000 0.687500
vt 0.635316 0.765625
vt 0.578125 0.708434
vt 0.656250 0.843750
vt 0.635316 0.765625
vt 0.635316 0.921875
vt 0.656250 0.843750
vt 0.625000 0.659734
vt 0.375000 0.688440
vt 0.635316 0.921875
vt 0.625000 0.688440
vt 0.395833 0.688440
vt 0.578125 0.979066
vt 0.416667 0.688440
vt 0.500000 1.000000
vt 0.437500 0.688440
vt 0.421875 0.979066
vt 0.458333 0.688440
vt 0.364684 0.921875
vt 0.479167 0.688440
vt 0.343750 0.843750
vt 0.500000 0.688440
vt 0.364684 0.765625
vt 0.520833 0.688440
vt 0.421875 0.708434
vt 0.541667 0.688440
vt 0.500000 0.687500
vt 0.562500 0.688440
vt 0.578125 0.708434
vt 0.583333 0.688440
vt 0.635316 0.765625
vt 0.656250 0.843750
vt 0.604167 0.688440
vt 0.635316 0.921875
vt 0.578125 0.979066
vt 0.500000 1.000000
vt 0.421875 0.979066
vt 0.364684 0.921875
vt 0.343750 0.843750
vt 0.364684 0.765625
vt 0.421875 0.708434
vt 0.500000 0.687500
vt 0.578125 0.708434
vt 0.635316 0.765625
vt 0.656250 0.843750
vt 0.635316 0.078125
vt 0.578125 0.020934
vt 0.500000 0.000000
vt 0.421875 0.020934
vt 0.364684 0.078125
vt 0.343750 0.156250
vt 0.364684 0.234375
vt 0.421875 0.291566
vt 0.500000 0.312500
vt 0.578125 0.291566
vt 0.635316 0.234375
vt 0.656250 0.156250
vt 0.628342 0.081830
vt 0.574098 0.027586
vt 0.500000 0.007731
vt 0.425902 0.027586
vt 0.371658 0.081830
vt 0.351803 0.155928
vt 0.371658 0.230026
vt 0.425902 0.284270
vt 0.500000 0.304125
vt 0.574098 0.284270
vt 0.628342 0.230026
vt 0.500000 0.150000
vt 0.648197 0.155928
vt 0.375000 0.316379
vt 0.395833 0.316379
vt 0.375000 0.659734
vt 0.416667 0.316379
vt 0.395833 0.659734
vt 0.437500 0.316379
vt 0.416667 0.659734
vt 0.458333 0.316379
vt 0.437500 0.659734
vt 0.479167 0.316379
vt 0.458333 0.659734
vt 0.500000 0.316379
vt 0.479167 0.659734
vt 0.520833 0.316379
vt 0.500000 0.659734
vt 0.541667 0.316379
vt 0.520833 0.659734
vt 0.562500 0.316379
vt 0.541667 0.659734
vt 0.583333 0.316379
vt 0.562500 0.659734
vt 0.604167 0.316379
vt 0.583333 0.659734
vt 0.625000 0.316379
vt 0.604167 0.659734
vt 0.635316 0.921875
vt 0.578125 0.979066
vt 0.500000 1.000000
vt 0.421875 0.979066
vt 0.364684 0.921875
vt 0.343750 0.843750
vt 0.364684 0.765625
vt 0.421875 0.708434
vt 0.500000 0.687500
vt 0.578125 0.708434
vt 0.635316 0.765625
vt 0.656250 0.843750
vt 0.635316 0.921875
vt 0.578125 0.979066
vt 0.500000 1.000000
vt 0.421875 0.979066
vt 0.364684 0.921875
vt 0.343750 0.843750
vt 0.364684 0.765625
vt 0.421875 0.708434
vt 0.500000 0.687500
vt 0.578125 0.708434
vt 0.635316 0.765625
vt 0.656250 0.843750
vt 0.635316 0.921875
vt 0.578125 0.979066
vt 0.500000 1.000000
vt 0.421875 0.979066
vt 0.364684 0.921875
vt 0.343750 0.843750
vt 0.364684 0.765625
vt 0.421875 0.708434
vt 0.500000 0.687500
vt 0.578125 0.708434
vt 0.635316 0.765625
vt 0.656250 0.843750
vt 0.635316 0.921875
vt 0.578125 0.979066
vt 0.500000 1.000000
vt 0.421875 0.979066
vt 0.364684 0.921875
vt 0.343750 0.843750
vt 0.364684 0.765625
vt 0.421875 0.708434
vt 0.500000 0.687500
vt 0.578125 0.708434
vt 0.635316 0.765625
vt 0.656250 0.843750
vn -0.861853 0.098044 0.497591
vn -0.497593 0.098045 0.861852
vn 0.000000 1.000000 -0.000000
vn 0.000000 0.098044 0.995182
vn 0.497593 0.098045 0.861852
vn 0.861853 0.098044 0.497591
vn 0.995182 0.098044 -0.000000
vn 0.861852 0.098044 -0.497592
vn 0.497592 0.098044 -0.861853
vn 0.000000 0.098044 -0.995182
vn -0.497592 0.098044 -0.861853
vn -0.861852 0.098044 -0.497592
vn -0.995182 0.098044 -0.000000
vn 0.866026 0.000000 -0.499999
vn 0.499999 0.000000 -0.866026
vn 0.291689 0.812200 -0.505222
vn 0.505223 0.812199 -0.291689
vn 0.000000 -0.000000 -1.000000
vn -0.000000 0.812199 -0.583381
vn -0.499999 -0.000000 -0.866026
vn -0.291689 0.812200 -0.505222
vn -0.866026 -0.000000 -0.499999
vn -0.505223 0.812199 -0.291689
vn -1.000000 0.000000 -0.000000
vn -0.583382 0.812198 -0.000000
vn -0.866025 0.000000 0.500000
vn -0.505223 0.812198 0.291691
vn -0.499999 0.000000 0.866026
vn -0.291690 0.812198 0.505224
vn -0.000000 -0.000000 1.000000
vn 0.000000 0.812196 0.583384
vn 0.499999 -0.000000 0.866026
vn 0.291690 0.812198 0.505224
vn 0.866025 -0.000000 0.500000
vn 0.505223 0.812198 0.291692
vn 1.000000 0.000000 0.000000
vn 0.583382 0.812198 0.000000
vn 0.862408 -0.091320 -0.497909
vn 0.497910 -0.091320 -0.862407
vn 0.000000 -0.091320 -0.995822
vn -0.497910 -0.091320 -0.862407
vn -0.862408 -0.091320 -0.497909
vn -0.995822 -0.091320 0.000000
vn -0.862406 -0.091320 0.497912
vn -0.497910 -0.091319 0.862407
vn -0.000000 -0.091319 0.995822
vn 0.497910 -0.091319 0.862407
vn 0.862406 -0.091320 0.497912
vn 0.995822 -0.091320 -0.000000
vn 0.822392 0.313416 -0.474808
vn 0.474808 0.313417 -0.822391
vn 0.472700 0.325917 -0.818739
vn 0.818740 0.325916 -0.472699
vn 0.000000 0.313417 -0.949616
vn 0.000000 0.325917 -0.945399
vn -0.474808 0.313417 -0.822391
vn -0.472700 0.325917 -0.818739
vn -0.822392 0.313416 -0.474808
vn -0.818739 0.325916 -0.472699
vn -0.949616 0.313416 -0.000000
vn -0.945399 0.325916 -0.000000
vn -0.822391 0.313416 0.474810
vn -0.818738 0.325916 0.472701
vn -0.474808 0.313416 0.822391
vn -0.472700 0.325916 0.818739
vn -0.000000 0.313417 0.949615
vn -0.000000 0.325916 0.945399
vn 0.474808 0.313416 0.822391
vn 0.472700 0.325916 0.818739
vn 0.822391 0.313416 0.474809
vn 0.818739 0.325916 0.472701
vn 0.949616 0.313416 0.000000
vn 0.945399 0.325916 0.000000
vn 0.865607 0.031120 -0.499756
vn 0.499757 0.031119 -0.865606
vn -0.000000 0.031119 -0.999516
vn -0.499757 0.031119 -0.865606
vn -0.865607 0.031120 -0.499756
vn -0.999516 0.031120 0.000000
vn -0.865605 0.031119 0.499759
vn -0.499757 0.031119 0.865606
vn 0.000000 0.031119 0.999516
vn 0.499757 0.031119 0.865606
vn 0.865606 0.031119 0.499759
vn 0.999516 0.031120 0.000000
vn 0.865993 0.008607 -0.499981
vn 0.853253 0.171116 -0.492625
vn 0.985251 0.171116 0.000000
vn 0.999963 0.008607 0.000000
vn 0.492626 0.171115 -0.853252
vn 0.499982 0.008607 -0.865993
vn 0.000000 0.171115 -0.985251
vn 0.000000 0.008607 -0.999963
vn -0.492626 0.171115 -0.853252
vn -0.499982 0.008607 -0.865993
vn -0.853253 0.171116 -0.492625
vn -0.865993 0.008607 -0.499981
vn -0.985251 0.171116 0.000000
vn -0.999963 0.008607 0.000000
vn -0.853252 0.171116 0.492626
vn -0.865993 0.008607 0.499982
vn -0.492626 0.171116 0.853252
vn -0.499982 0.008607 0.865993
vn -0.000000 0.171116 0.985251
vn 0.000000 0.008607 0.999963
vn 0.492626 0.171116 0.853252
vn 0.499982 0.008607 0.865993
vn 0.853252 0.171116 0.492626
vn 0.865993 0.008607 0.499982
vn 0.851181 0.184364 -0.491428
vn 0.982858 0.184365 0.000000
vn 0.491428 0.184363 -0.851181
vn 0.000000 0.184364 -0.982858
vn -0.491428 0.184363 -0.851180
vn -0.851180 0.184364 -0.491428
vn -0.982858 0.184365 0.000000
vn -0.851179 0.184364 0.491430
vn -0.491429 0.184363 0.851181
vn -0.000000 0.184364 0.982858
vn 0.491429 0.184363 0.851180
vn 0.851179 0.184364 0.491430
vn 0.108214 -0.992162 -0.062478
vn 0.865949 -0.013265 -0.499956
vn 0.999912 -0.013265 0.000000
vn 0.124955 -0.992162 0.000000
vn 0.062478 -0.992162 -0.108215
vn 0.499956 -0.013265 -0.865949
vn 0.000000 -0.992162 -0.124956
vn 0.000000 -0.013265 -0.999912
vn -0.062478 -0.992162 -0.108215
vn -0.499956 -0.013265 -0.865949
vn -0.108214 -0.992162 -0.062478
vn -0.865949 -0.013265 -0.499956
vn -0.124955 -0.992162 0.000000
vn -0.999912 -0.013265 0.000000
vn -0.108214 -0.992162 0.062478
vn -0.865949 -0.013265 0.499957
vn -0.062478 -0.992162 0.108215
vn -0.499956 -0.013265 0.865949
vn 0.000000 -0.992162 0.124956
vn 0.000000 -0.013265 0.999912
vn 0.062478 -0.992162 0.108215
vn 0.499956 -0.013265 0.865949
vn 0.108214 -0.992162 0.062478
vn 0.865949 -0.013265 0.499957
vn 0.000000 -1.000000 0.000000
vn -0.497943 0.090637 0.862460
vn -0.862461 0.090637 0.497943
vn 0.000000 0.090638 0.995884
vn 0.497943 0.090637 0.862460
vn 0.862461 0.090637 0.497943
vn 0.995884 0.090637 0.000000
vn 0.862460 0.090636 -0.497943
vn 0.497943 0.090637 -0.862461
vn 0.000000 0.090637 -0.995884
vn -0.497943 0.090637 -0.862460
vn -0.862460 0.090637 -0.497943
vn -0.995884 0.090637 -0.000000
vn -0.489569 -0.203214 0.847954
vn -0.847955 -0.203214 0.489567
vn 0.000000 -0.203215 0.979134
vn 0.489569 -0.203214 0.847954
vn 0.847955 -0.203214 0.489567
vn 0.979134 -0.203214 -0.000000
vn 0.847955 -0.203214 -0.489568
vn 0.489568 -0.203214 -0.847955
vn -0.000000 -0.203215 -0.979134
vn -0.489568 -0.203214 -0.847955
vn -0.847955 -0.203214 -0.489568
vn -0.979134 -0.203214 -0.000000
vn -0.498831 -0.068415 0.863995
vn -0.863997 -0.068415 0.498828
vn 0.000000 -0.068416 0.997657
vn 0.498831 -0.068415 0.863995
vn 0.863997 -0.068415 0.498828
vn 0.997657 -0.068415 -0.000000
vn 0.863996 -0.068415 -0.498830
vn 0.498829 -0.068415 -0.863996
vn -0.000000 -0.068415 -0.997657
vn -0.498829 -0.068415 -0.863996
vn -0.863996 -0.068415 -0.498830
vn -0.997657 -0.068415 -0.000000
s 1
g pCylinder9 Bottle_OBJ
usemtl initialShadingGroup
f 170/198/1 171/199/2 172/1/3
f 171/199/2 173/200/4 172/1/3
f 173/200/4 174/201/5 172/1/3
f 174/201/5 175/202/6 172/1/3
f 175/202/6 176/203/7 172/1/3
f 176/203/7 177/204/8 172/1/3
f 177/204/8 178/205/9 172/1/3
f 178/205/9 179/206/10 172/1/3
f 179/206/10 180/207/11 172/1/3
f 180/207/11 181/208/12 172/1/3
f 181/208/12 182/209/13 172/1/3
f 182/209/13 170/198/1 172/1/3
f 26/14/14 27/15/15 15/3/16 14/2/17
f 27/15/15 28/16/18 16/4/19 15/3/16
f 28/16/18 29/17/20 17/5/21 16/4/19
f 29/17/20 30/18/22 18/6/23 17/5/21
f 30/18/22 31/19/24 19/7/25 18/6/23
f 31/19/24 32/20/26 20/8/27 19/7/25
f 32/20/26 33/21/28 21/9/29 20/8/27
f 33/21/28 34/22/30 22/10/31 21/9/29
f 34/22/30 35/23/32 23/11/33 22/10/31
f 35/23/32 36/24/34 24/12/35 23/11/33
f 36/24/34 37/25/36 25/13/37 24/12/35
f 37/25/36 26/14/14 14/2/17 25/13/37
f 2/51/38 3/53/39 27/15/15 26/14/14
f 3/53/39 4/55/40 28/16/18 27/15/15
f 4/55/40 5/57/41 29/17/20 28/16/18
f 5/57/41 6/59/42 30/18/22 29/17/20
f 6/59/42 7/61/43 31/19/24 30/18/22
f 7/61/43 8/63/44 32/20/26 31/19/24
f 8/63/44 9/65/45 33/21/28 32/20/26
f 9/65/45 10/67/46 34/22/30 33/21/28
f 10/67/46 11/69/47 35/23/32 34/22/30
f 11/69/47 12/71/48 36/24/34 35/23/32
f 12/71/48 13/73/49 37/25/36 36/24/34
f 13/73/49 2/51/38 26/14/14 37/25/36
f 40/48/50 43/26/51 77/29/52 74/27/53
f 43/26/51 46/28/54 80/31/55 77/29/52
f 46/28/54 49/30/56 83/33/57 80/31/55
f 49/30/56 52/32/58 86/35/59 83/33/57
f 52/32/58 55/34/60 89/37/61 86/35/59
f 55/34/60 58/36/62 92/39/63 89/37/61
f 58/36/62 61/38/64 95/41/65 92/39/63
f 61/38/64 64/40/66 98/43/67 95/41/65
f 64/40/66 67/42/68 101/45/69 98/43/67
f 67/42/68 70/44/70 104/47/71 101/45/69
f 70/44/70 73/46/72 107/49/73 104/47/71
f 73/46/72 40/48/50 74/27/53 107/49/73
f 76/72/74 79/50/75 3/53/39 2/51/38
f 79/50/75 82/52/76 4/55/40 3/53/39
f 82/52/76 85/54/77 5/57/41 4/55/40
f 85/54/77 88/56/78 6/59/42 5/57/41
f 88/56/78 91/58/79 7/61/43 6/59/42
f 91/58/79 94/60/80 8/63/44 7/61/43
f 94/60/80 97/62/81 9/65/45 8/63/44
f 97/62/81 100/64/82 10/67/46 9/65/45
f 100/64/82 103/66/83 11/69/47 10/67/46
f 103/66/83 106/68/84 12/71/48 11/69/47
f 106/68/84 109/70/85 13/73/49 12/71/48
f 109/70/85 76/72/74 2/51/38 13/73/49
f 38/74/86 39/77/87 72/99/88 71/161/89
f 39/76/87 40/48/50 73/46/72 72/98/88
f 40/48/50 39/76/87 42/79/90 43/26/51
f 39/75/87 38/139/86 41/141/91 42/78/90
f 43/26/51 42/79/90 45/81/92 46/28/54
f 42/78/90 41/141/91 44/143/93 45/80/92
f 46/28/54 45/81/92 48/83/94 49/30/56
f 45/80/92 44/143/93 47/145/95 48/82/94
f 49/30/56 48/83/94 51/85/96 52/32/58
f 48/82/94 47/145/95 50/147/97 51/84/96
f 52/32/58 51/85/96 54/87/98 55/34/60
f 51/84/96 50/147/97 53/149/99 54/86/98
f 55/34/60 54/87/98 57/89/100 58/36/62
f 54/86/98 53/149/99 56/151/101 57/88/100
f 58/36/62 57/89/100 60/91/102 61/38/64
f 57/88/100 56/151/101 59/153/103 60/90/102
f 61/38/64 60/91/102 63/93/104 64/40/66
f 60/90/102 59/153/103 62/155/105 63/92/104
f 64/40/66 63/93/104 66/95/106 67/42/68
f 63/92/104 62/155/105 65/157/107 66/94/106
f 67/42/68 66/95/106 69/97/108 70/44/70
f 66/94/106 65/157/107 68/159/109 69/96/108
f 70/44/70 69/97/108 72/98/88 73/46/72
f 69/96/108 68/159/109 71/161/89 72/99/88
f 74/27/53 75/100/110 108/111/111 107/49/73
f 75/100/110 76/72/74 109/70/85 108/111/111
f 76/72/74 75/100/110 78/101/112 79/50/75
f 75/100/110 74/27/53 77/29/52 78/101/112
f 79/50/75 78/101/112 81/102/113 82/52/76
f 78/101/112 77/29/52 80/31/55 81/102/113
f 82/52/76 81/102/113 84/103/114 85/54/77
f 81/102/113 80/31/55 83/33/57 84/103/114
f 85/54/77 84/103/114 87/104/115 88/56/78
f 84/103/114 83/33/57 86/35/59 87/104/115
f 88/56/78 87/104/115 90/105/116 91/58/79
f 87/104/115 86/35/59 89/37/61 90/105/116
f 91/58/79 90/105/116 93/106/117 94/60/80
f 90/105/116 89/37/61 92/39/63 93/106/117
f 94/60/80 93/106/117 96/107/118 97/62/81
f 93/106/117 92/39/63 95/41/65 96/107/118
f 97/62/81 96/107/118 99/108/119 100/64/82
f 96/107/118 95/41/65 98/43/67 99/108/119
f 100/64/82 99/108/119 102/109/120 103/66/83
f 99/108/119 98/43/67 101/45/69 102/109/120
f 103/66/83 102/109/120 105/110/121 106/68/84
f 102/109/120 101/45/69 104/47/71 105/110/121
f 106/68/84 105/110/121 108/111/111 109/70/85
f 105/110/121 104/47/71 107/49/73 108/111/111
f 110/124/122 111/112/123 133/123/124 132/136/125
f 111/112/123 110/124/122 112/125/126 113/113/127
f 113/113/127 112/125/126 114/126/128 115/114/129
f 115/114/129 114/126/128 116/127/130 117/115/131
f 117/115/131 116/127/130 118/128/132 119/116/133
f 119/116/133 118/128/132 120/129/134 121/117/135
f 121/117/135 120/129/134 122/130/136 123/118/137
f 123/118/137 122/130/136 124/131/138 125/119/139
f 125/119/139 124/131/138 126/132/140 127/120/141
f 127/120/141 126/132/140 128/133/142 129/121/143
f 129/121/143 128/133/142 130/134/144 131/122/145
f 131/122/145 130/134/144 132/136/125 133/123/124
f 112/125/126 110/124/122 1/135/146
f 114/126/128 112/125/126 1/135/146
f 116/127/130 114/126/128 1/135/146
f 118/128/132 116/127/130 1/135/146
f 120/129/134 118/128/132 1/135/146
f 122/130/136 120/129/134 1/135/146
f 124/131/138 122/130/136 1/135/146
f 126/132/140 124/131/138 1/135/146
f 128/133/142 126/132/140 1/135/146
f 130/134/144 128/133/142 1/135/146
f 132/136/125 130/134/144 1/135/146
f 110/124/122 132/136/125 1/135/146
f 111/137/123 113/138/127 41/141/91 38/139/86
f 113/138/127 115/140/129 44/143/93 41/141/91
f 115/140/129 117/142/131 47/145/95 44/143/93
f 117/142/131 119/144/133 50/147/97 47/145/95
f 119/144/133 121/146/135 53/149/99 50/147/97
f 121/146/135 123/148/137 56/151/101 53/149/99
f 123/148/137 125/150/139 59/153/103 56/151/101
f 125/150/139 127/152/141 62/155/105 59/153/103
f 127/152/141 129/154/143 65/157/107 62/155/105
f 129/154/143 131/156/145 68/159/109 65/157/107
f 131/156/145 133/158/124 71/161/89 68/159/109
f 133/158/124 111/160/123 38/74/86 71/161/89
f 14/2/17 15/3/16 135/163/147 134/162/148
f 15/3/16 16/4/19 136/164/149 135/163/147
f 16/4/19 17/5/21 137/165/150 136/164/149
f 17/5/21 18/6/23 138/166/151 137/165/150
f 18/6/23 19/7/25 139/167/152 138/166/151
f 19/7/25 20/8/27 140/168/153 139/167/152
f 20/8/27 21/9/29 141/169/154 140/168/153
f 21/9/29 22/10/31 142/170/155 141/169/154
f 22/10/31 23/11/33 143/171/156 142/170/155
f 23/11/33 24/12/35 144/172/157 143/171/156
f 24/12/35 25/13/37 145/173/158 144/172/157
f 25/13/37 14/2/17 134/162/148 145/173/158
f 134/162/148 135/163/147 147/175/159 146/174/160
f 135/163/147 136/164/149 148/176/161 147/175/159
f 136/164/149 137/165/150 149/177/162 148/176/161
f 137/165/150 138/166/151 150/178/163 149/177/162
f 138/166/151 139/167/152 151/179/164 150/178/163
f 139/167/152 140/168/153 152/180/165 151/179/164
f 140/168/153 141/169/154 153/181/166 152/180/165
f 141/169/154 142/170/155 154/182/167 153/181/166
f 142/170/155 143/171/156 155/183/168 154/182/167
f 143/171/156 144/172/157 156/184/169 155/183/168
f 144/172/157 145/173/158 157/185/170 156/184/169
f 145/173/158 134/162/148 146/174/160 157/185/170
f 146/174/160 147/175/159 159/187/171 158/186/172
f 147/175/159 148/176/161 160/188/173 159/187/171
f 148/176/161 149/177/162 161/189/174 160/188/173
f 149/177/162 150/178/163 162/190/175 161/189/174
f 150/178/163 151/179/164 163/191/176 162/190/175
f 151/179/164 152/180/165 164/192/177 163/191/176
f 152/180/165 153/181/166 165/193/178 164/192/177
f 153/181/166 154/182/167 166/194/179 165/193/178
f 154/182/167 155/183/168 167/195/180 166/194/179
f 155/183/168 156/184/169 168/196/181 167/195/180
f 156/184/169 157/185/170 169/197/182 168/196/181
f 157/185/170 146/174/160 158/186/172 169/197/182
f 158/186/172 159/187/171 171/199/2 170/198/1
f 159/187/171 160/188/173 173/200/4 171/199/2
f 160/188/173 161/189/174 174/201/5 173/200/4
f 161/189/174 162/190/175 175/202/6 174/201/5
f 162/190/175 163/191/176 176/203/7 175/202/6
f 163/191/176 164/192/177 177/204/8 176/203/7
f 164/192/177 165/193/178 178/205/9 177/204/8
f 165/193/178 166/194/179 179/206/10 178/205/9
f 166/194/179 167/195/180 180/207/11 179/206/10
f 167/195/180 168/196/181 181/208/12 180/207/11
f 168/196/181 169/197/182 182/209/13 181/208/12
f 169/197/182 158/186/172 170/198/1 182/209/13
